<svg width="1200" height="630" viewBox="0 0 1200 630" fill="none" xmlns="http://www.w3.org/2000/svg">
  <defs>
    <linearGradient id="bg" x1="0" y1="0" x2="1200" y2="630" gradientUnits="userSpaceOnUse">
      <stop offset="0%" stop-color="#0A0A0F"/>
      <stop offset="100%" stop-color="#12101A"/>
    </linearGradient>
    <radialGradient id="glow" cx="0.85" cy="0.15" r="0.6">
      <stop offset="0%" stop-color="#7C3AED" stop-opacity="0.35"/>
      <stop offset="100%" stop-color="#7C3AED" stop-opacity="0"/>
    </radialGradient>
    <style>
      @import url('https://fonts.googleapis.com/css2?family=Instrument+Serif:ital,wght@0,400;1,400&amp;family=Space+Grotesk:wght@300;400;500;600;700&amp;display=swap');
    </style>
  </defs>

  <!-- Background -->
  <rect width="1200" height="630" fill="url(#bg)"/>
  <rect width="1200" height="630" fill="url(#glow)"/>

  <!-- Subtle grid -->
  <g stroke="white" stroke-opacity="0.04" stroke-width="1">
    <line x1="0" y1="210" x2="1200" y2="210"/>
    <line x1="0" y1="420" x2="1200" y2="420"/>
    <line x1="400" y1="0" x2="400" y2="630"/>
    <line x1="800" y1="0" x2="800" y2="630"/>
  </g>

  <!-- Corner brackets -->
  <g stroke="white" stroke-opacity="0.2" stroke-width="2" fill="none">
    <path d="M60 100 L60 60 L100 60"/>
    <path d="M1140 100 L1140 60 L1100 60"/>
    <path d="M60 530 L60 570 L100 570"/>
    <path d="M1140 530 L1140 570 L1100 570"/>
  </g>

  <!-- Status pill -->
  <rect x="80" y="180" width="200" height="44" rx="22" fill="white" fill-opacity="0.06" stroke="white" stroke-opacity="0.12"/>
  <circle cx="108" cy="202" r="6" fill="#4ADE80"/>
  <text x="124" y="210" font-family="'Space Grotesk', sans-serif" font-size="16" font-weight="500" fill="white" fill-opacity="0.9">Open to New Roles</text>

  <!-- Name -->
  <text x="80" y="320" font-family="'Instrument Serif', serif" font-size="96" font-weight="400" fill="white" letter-spacing="-0.02em">Shreyansh Gupta</text>

  <!-- Role -->
  <text x="80" y="380" font-family="'Space Grotesk', monospace" font-size="24" fill="#A78BFA" font-weight="500">Design Engineer</text>
  <text x="295" y="380" font-family="'Space Grotesk', monospace" font-size="24" fill="white" fill-opacity="0.4">·</text>
  <text x="320" y="380" font-family="'Space Grotesk', monospace" font-size="24" fill="#60A5FA" font-weight="500">FullStack Developer</text>

  <!-- Tagline -->
  <text x="80" y="440" font-family="'Space Grotesk', sans-serif" font-size="22" fill="white" fill-opacity="0.7">Crafting cinematic product experiences across web and mobile.</text>

  <!-- Stats -->
  <g transform="translate(80, 500)">
    <text x="0" y="0" font-family="'Instrument Serif', serif" font-size="48" font-weight="400" fill="white">5+</text>
    <text x="0" y="28" font-family="'Space Grotesk', sans-serif" font-size="12" fill="white" fill-opacity="0.4" letter-spacing="0.15em">STARTUPS</text>
  </g>
  <g transform="translate(200, 500)">
    <text x="0" y="0" font-family="'Instrument Serif', serif" font-size="48" font-weight="400" fill="white">15+</text>
    <text x="0" y="28" font-family="'Space Grotesk', sans-serif" font-size="12" fill="white" fill-opacity="0.4" letter-spacing="0.15em">PROJECTS</text>
  </g>

  <!-- URL -->
  <text x="1120" y="570" text-anchor="end" font-family="'Space Grotesk', sans-serif" font-size="16" fill="white" fill-opacity="0.35">shrey258.com</text>
</svg>
